<svg xmlns="http://www.w3.org/2000/svg" viewBox="0 0 16.56 20"><defs><style>.cls-1{fill:#f68536;}.cls-2{fill:#9d5025;}</style></defs><title>Asset 3</title><g id="Layer_2" data-name="Layer 2"><g id="Layer_1-2" data-name="Layer 1"><g id="Layer_2-2" data-name="Layer 2"><g id="Content"><path class="cls-1" d="M2.77,15.82l-1.94.44V3.72l1.94.45V15.82"/><path class="cls-1" d="M5.2,16.56l-2.4.69V2.76l2.4.68V16.56m3.1.76L5.2,18.46V1.55L8.28,2.68V17.32m8.28-1.46L8.28,20V0l8.28,4.14V15.86"/><path class="cls-2" d="M6.63.82,8.28,0V20l-1.65-.82V.82M3.9,2.19l1.3-.64v16.9l-1.28-.64V2.19M1.75,3.27l1-.51V17.24l-1-.51V3.27m-.92.45L0,4.14V15.86l.83.4V3.72"/></g></g></g></g></svg>